<?xml version="1.0" encoding="utf-8"?>
<!-- Generator: Adobe Illustrator 25.4.1, SVG Export Plug-In . SVG Version: 6.00 Build 0)  -->
<svg version="1.1" id="Capa_1" xmlns="http://www.w3.org/2000/svg" xmlns:xlink="http://www.w3.org/1999/xlink" x="0px" y="0px"
	 viewBox="0 0 1920 1080" enable-background="new 0 0 1920 1080" xml:space="preserve">
<g>
	<path fill="#FFB5B0" d="M598.24,926.84c0,13.25,10.75,24,24,24h653.09c13.25,0,24-10.75,24-24V167.1c0-13.25-10.75-24-24-24H622.24
		c-13.25,0-24,10.75-24,24V926.84z"/>
</g>
<g>
	<path fill="#F8F8F8" d="M698.27,875.87c0,13.25,10.75,24,24,24h653.09c13.25,0,24-10.75,24-24V116.12c0-13.25-10.75-24-24-24
		H722.27c-13.25,0-24,10.75-24,24V875.87z"/>
</g>
<g>
	<path fill="#FF98A0" d="M1347.12,123.22c11.03,0,20,8.97,20,20v705.71c0,11.03-8.97,20-20,20H747.21c-11.03,0-20-8.97-20-20V143.22
		c0-11.03,8.97-20,20-20H1347.12 M1347.12,119.22H747.21c-13.25,0-24,10.75-24,24v705.71c0,13.25,10.75,24,24,24h599.91
		c13.25,0,24-10.75,24-24V143.22C1371.12,129.97,1360.37,119.22,1347.12,119.22L1347.12,119.22z"/>
</g>
<g opacity="0.4">
	<circle fill="#FF98A0" cx="772.95" cy="194.24" r="7.08"/>
</g>
<g opacity="0.4">
	<circle fill="#FF98A0" cx="772.78" cy="260.26" r="7.08"/>
</g>
<g opacity="0.4">
	<circle fill="#FF98A0" cx="773.03" cy="326.42" r="7.08"/>
</g>
<g opacity="0.4">
	<circle fill="#FF98A0" cx="772.86" cy="392.45" r="7.08"/>
</g>
<g opacity="0.4">
	<circle fill="#FF98A0" cx="772.99" cy="458.33" r="7.08"/>
</g>
<g opacity="0.4">
	<circle fill="#FF98A0" cx="772.82" cy="524.35" r="7.08"/>
</g>
<g opacity="0.4">
	<circle fill="#FF98A0" cx="773.08" cy="590.51" r="7.08"/>
</g>
<g opacity="0.4">
	<circle fill="#FF98A0" cx="772.91" cy="656.54" r="7.08"/>
</g>
<g opacity="0.4">
	<circle fill="#FF98A0" cx="772.82" cy="722.34" r="7.08"/>
</g>
<g opacity="0.4">
	<circle fill="#FF98A0" cx="773.08" cy="788.5" r="7.08"/>
</g>
<g opacity="0.4">
	<circle fill="#FF98A0" cx="996.97" cy="193.3" r="7.08"/>
</g>
<g opacity="0.4">
	<circle fill="#FF98A0" cx="996.8" cy="259.33" r="7.08"/>
</g>
<g opacity="0.4">
	<circle fill="#FF98A0" cx="997.05" cy="325.48" r="7.08"/>
</g>
<g opacity="0.4">
	<circle fill="#FF98A0" cx="996.89" cy="391.51" r="7.08"/>
</g>
<g opacity="0.4">
	<circle fill="#FF98A0" cx="997.01" cy="457.39" r="7.08"/>
</g>
<g opacity="0.4">
	<circle fill="#FF98A0" cx="996.84" cy="523.42" r="7.08"/>
</g>
<g opacity="0.4">
	<circle fill="#FF98A0" cx="997.1" cy="589.58" r="7.08"/>
</g>
<g opacity="0.4">
	<circle fill="#FF98A0" cx="996.93" cy="655.6" r="7.08"/>
</g>
<g opacity="0.4">
	<circle fill="#FF98A0" cx="996.84" cy="721.41" r="7.08"/>
</g>
<g opacity="0.4">
	<circle fill="#FF98A0" cx="997.1" cy="787.56" r="7.08"/>
</g>
<g opacity="0.4">
	<circle fill="#FF98A0" cx="882.14" cy="193.94" r="7.08"/>
</g>
<g opacity="0.4">
	<circle fill="#FF98A0" cx="881.97" cy="259.96" r="7.08"/>
</g>
<g opacity="0.4">
	<circle fill="#FF98A0" cx="882.22" cy="326.12" r="7.08"/>
</g>
<g opacity="0.4">
	<circle fill="#FF98A0" cx="882.06" cy="392.15" r="7.08"/>
</g>
<g opacity="0.4">
	<circle fill="#FF98A0" cx="882.18" cy="458.03" r="7.08"/>
</g>
<g opacity="0.4">
	<circle fill="#FF98A0" cx="882.01" cy="524.06" r="7.08"/>
</g>
<g opacity="0.4">
	<circle fill="#FF98A0" cx="882.27" cy="590.21" r="7.08"/>
</g>
<g opacity="0.4">
	<circle fill="#FF98A0" cx="882.1" cy="656.24" r="7.08"/>
</g>
<g opacity="0.4">
	<circle fill="#FF98A0" cx="882.01" cy="722.04" r="7.08"/>
</g>
<g opacity="0.4">
	<circle fill="#FF98A0" cx="882.27" cy="788.2" r="7.08"/>
</g>
<g opacity="0.4">
	<circle fill="#FF98A0" cx="1099.63" cy="194.41" r="7.08"/>
</g>
<g opacity="0.4">
	<circle fill="#FF98A0" cx="1099.46" cy="260.43" r="7.08"/>
</g>
<g opacity="0.4">
	<circle fill="#FF98A0" cx="1099.71" cy="326.59" r="7.08"/>
</g>
<g opacity="0.4">
	<circle fill="#FF98A0" cx="1099.55" cy="392.61" r="7.08"/>
</g>
<g opacity="0.4">
	<circle fill="#FF98A0" cx="1099.67" cy="458.5" r="7.08"/>
</g>
<g opacity="0.4">
	<circle fill="#FF98A0" cx="1099.5" cy="524.52" r="7.08"/>
</g>
<g opacity="0.4">
	<circle fill="#FF98A0" cx="1099.76" cy="590.68" r="7.08"/>
</g>
<g opacity="0.4">
	<circle fill="#FF98A0" cx="1099.59" cy="656.71" r="7.08"/>
</g>
<g opacity="0.4">
	<circle fill="#FF98A0" cx="1099.5" cy="722.51" r="7.08"/>
</g>
<g opacity="0.4">
	<circle fill="#FF98A0" cx="1099.76" cy="788.67" r="7.08"/>
</g>
<g opacity="0.4">
	<circle fill="#FF98A0" cx="1326.65" cy="193.47" r="7.08"/>
</g>
<g opacity="0.4">
	<circle fill="#FF98A0" cx="1326.48" cy="259.5" r="7.08"/>
</g>
<g opacity="0.4">
	<circle fill="#FF98A0" cx="1326.74" cy="325.65" r="7.08"/>
</g>
<g opacity="0.4">
	<circle fill="#FF98A0" cx="1326.57" cy="391.68" r="7.08"/>
</g>
<g opacity="0.4">
	<circle fill="#FF98A0" cx="1326.69" cy="457.56" r="7.08"/>
</g>
<g opacity="0.4">
	<circle fill="#FF98A0" cx="1326.52" cy="523.59" r="7.08"/>
</g>
<g opacity="0.4">
	<circle fill="#FF98A0" cx="1326.78" cy="589.75" r="7.08"/>
</g>
<g opacity="0.4">
	<circle fill="#FF98A0" cx="1326.61" cy="655.77" r="7.08"/>
</g>
<g opacity="0.4">
	<circle fill="#FF98A0" cx="1326.52" cy="721.58" r="7.08"/>
</g>
<g opacity="0.4">
	<circle fill="#FF98A0" cx="1326.78" cy="787.73" r="7.08"/>
</g>
<g opacity="0.4">
	<circle fill="#FF98A0" cx="1211.82" cy="194.11" r="7.08"/>
</g>
<g opacity="0.4">
	<circle fill="#FF98A0" cx="1211.65" cy="260.13" r="7.08"/>
</g>
<g opacity="0.4">
	<circle fill="#FF98A0" cx="1211.91" cy="326.29" r="7.08"/>
</g>
<g opacity="0.4">
	<circle fill="#FF98A0" cx="1211.74" cy="392.32" r="7.08"/>
</g>
<g opacity="0.4">
	<circle fill="#FF98A0" cx="1211.86" cy="458.2" r="7.08"/>
</g>
<g opacity="0.4">
	<circle fill="#FF98A0" cx="1211.69" cy="524.22" r="7.08"/>
</g>
<g opacity="0.4">
	<circle fill="#FF98A0" cx="1211.95" cy="590.38" r="7.08"/>
</g>
<g opacity="0.4">
	<circle fill="#FF98A0" cx="1211.78" cy="656.41" r="7.08"/>
</g>
<g opacity="0.4">
	<circle fill="#FF98A0" cx="1211.69" cy="722.21" r="7.08"/>
</g>
<g opacity="0.4">
	<circle fill="#FF98A0" cx="1211.95" cy="788.37" r="7.08"/>
</g>
</svg>
