<?xml version="1.0" encoding="utf-8"?>
<!-- Generator: Adobe Illustrator 25.4.1, SVG Export Plug-In . SVG Version: 6.00 Build 0)  -->
<svg version="1.1" id="Capa_1" xmlns="http://www.w3.org/2000/svg" xmlns:xlink="http://www.w3.org/1999/xlink" x="0px" y="0px"
	 viewBox="0 0 1920 1080" enable-background="new 0 0 1920 1080" xml:space="preserve">
<path fill="#FFD8BF" d="M-3.64,652.83c0,0,123-171.29,291-153.29s309.77,220.51,560.38,102.75S1401.49,69.46,1634.93,140
	s281.44,191.12,281.44,191.12v668.42H2.36L-3.64,652.83z"/>
<path fill="#EAE8D5" d="M-0.64,810.89c0,0,119.07-132.82,235.48-101.13c116.41,31.69,216.38,254.6,422.32,205.54
	s669.59-409.06,829.65-267.99s313.52-48.14,377.75,173.38c64.23,221.52,54.23,258.85,54.23,258.85H5.36L-0.64,810.89z"/>
<rect x="3" y="954.54" fill="#EB6479" width="1912.86" height="124.94"/>
</svg>
